<svg height="480pt" viewBox="0 -16 480.00003 480" width="480pt" xmlns="http://www.w3.org/2000/svg"><path d="m352 .0078125c-46.570312.2187495-89.394531 25.5624995-112 66.2773435-28.140625-51.183594-87.378906-76.800781-143.945312-62.253906-56.570313 14.546875-96.0976568 65.566406-96.054688 123.976562 0 137.40625 164.671875 320 240 320s240-182.59375 240-320c-.082031-70.660156-57.34375-127.9179682-128-127.9999995zm-112 431.9999995c-60 0-224-172.347656-224-304-.03125-54.015624 38.511719-100.347656 91.628906-110.148437 53.117188-9.796875 105.65625 19.734375 124.898438 70.203125 1.183594 3.097656 4.15625 5.140625 7.472656 5.140625s6.289062-2.042969 7.472656-5.140625c19.242188-50.46875 71.78125-80 124.898438-70.203125 53.117187 9.800781 91.660156 56.132813 91.628906 110.148437 0 131.652344-164 304-224 304zm0 0"/><path d="m152 128.007812c-30.929688 0-56 25.070313-56 56 0 30.925782 25.070312 56 56 56s56-25.074218 56-56c-.039062-30.914062-25.089844-55.960937-56-56zm0 96c-19-.027343-35.371094-13.390624-39.199219-32h25.40625c2.824219 4.945313 8.085938 8 13.785157 8 5.699218 0 10.957031-3.054687 13.785156-8h25.421875c-3.828125 18.609376-20.199219 31.972657-39.199219 32zm13.785156-48c-2.824218-4.949218-8.085937-8.003906-13.785156-8.003906s-10.957031 3.054688-13.785156 8.003906h-25.414063c3.785157-18.644531 20.175781-32.042968 39.199219-32.042968s35.414062 13.398437 39.199219 32.042968zm0 0"/><path d="m328 128.007812c-30.929688 0-56 25.070313-56 56 0 30.925782 25.070312 56 56 56s56-25.074218 56-56c-.039062-30.914062-25.089844-55.960937-56-56zm0 96c-19-.027343-35.371094-13.390624-39.199219-32h25.40625c2.824219 4.945313 8.085938 8 13.785157 8 5.699218 0 10.957031-3.054687 13.785156-8h25.421875c-3.828125 18.609376-20.199219 31.972657-39.199219 32zm13.785156-48c-2.824218-4.949218-8.085937-8.003906-13.785156-8.003906s-10.957031 3.054688-13.785156 8.003906h-25.414063c3.785157-18.644531 20.175781-32.042968 39.199219-32.042968s35.414062 13.398437 39.199219 32.042968zm0 0"/><path d="m240 272.007812c-18.777344 0-35.785156 16.46875-37.65625 18.34375-3.035156 3.136719-2.992188 8.125.089844 11.214844 3.082031 3.085938 8.074218 3.132813 11.214844.105469 7.074218-7.289063 16.320312-12.082031 26.351562-13.664063 10.03125 1.582032 19.277344 6.375 26.351562 13.664063 3.140626 3.027344 8.132813 2.980469 11.214844-.105469 3.082032-3.089844 3.125-8.078125.089844-11.214844-1.871094-1.875-18.878906-18.34375-37.65625-18.34375zm0 0"/></svg>